<svg xmlns="http://www.w3.org/2000/svg" width="512" height="512" viewBox="0 0 512 512"><path fill="#ED0C8D" d="M512 472c0 22.1-17.9 40-40 40H40c-22.1 0-40-17.9-40-40V40C0 17.9 17.9 0 40 0h432c22.1 0 40 17.9 40 40v432z"/><path fill-rule="evenodd" clip-rule="evenodd" fill="#FFF" d="M223.1 189.1h6.6c3.5.4 7.1.8 10.4 1.6 9.6 2.2 17.5 6.1 24.3 11.2 4.2 3.2 9.3 7.1 12.3 11.4 1.8 2.6 2.4 6 1.6 9.3-.9 3.3-2.4 5.2-4.7 7.2-2.2 1.9-4.7 3.6-8.3 3.4-3.2-.2-6.1-1.7-8.2-3.6-1-.9-1.8-2.1-2.8-3.2-6.6-6.9-16.6-11.8-30.4-11.2-7.6.3-13 2.7-18.1 5.6-9.9 5.7-17.7 14.4-20.2 27.2-1.4 6.9-.7 14.6 1.4 20.6 4 11.5 12.7 19.3 23.4 24.1 2.8 1.2 5.7 2.5 8.9 3 3.5.5 7.1.7 11.2.3 10.7-1 18.6-5.3 24.2-11.4 1.9-2.1 3.6-4.1 6.5-5.4 3.4-1.5 6.8-1.3 9.5.2 2.5 1.4 4.9 3.4 6.2 5.6 1.5 2.5 2.5 6.1 1.6 9.5-.8 3.1-2.7 5-4.8 7.1-7.9 7.9-17.3 14.5-29.5 18-6.3 1.8-13.4 2.9-20.9 2.6-7.3-.3-14-1.8-19.8-3.9-11.7-4.3-21.1-10.8-28.2-19.3-7.4-8.9-12.6-18.8-15.2-32.2-2.8-15 1-29.5 5.8-39.7 4.9-10.4 12.5-19.3 21.8-25.6 9.4-6.8 20.5-11.4 35.4-12.4zM445.8 251.9v7.2c-.3 2.4-.5 5-.9 7.3-1.2 7.1-3.3 13-6 18.5-7 14.1-18.6 25.4-33.6 31.6-7.6 3.2-16.9 5.5-27.4 5s-18.8-2.6-26.4-6.2c-7.3-3.5-13.9-7.9-19.1-13.5-10.2-10.8-18.9-25.6-18.9-46.4 0-10.4 2.4-19.3 5.7-26.9 3.3-7.6 7.8-14 13.2-19.4 5.5-5.5 11.6-9.9 19.1-13.5 7.3-3.4 16.1-6.1 26.3-6.3 10.5-.2 19.8 1.8 27.5 5.1 7.8 3.3 14.3 7.6 19.7 12.9 11.1 10.9 19.1 24.2 20.8 44.6zm-77.7-35.2c-7.7 2.3-14 6.6-18.5 11.7-6 6.8-11.3 16.6-10.3 29.9.9 12.2 6.2 20.5 13.2 27.1 6.5 6.1 17 11.2 29.8 10.3 12.1-.8 20.9-6.1 27.2-13.1 6.2-6.9 11.3-16.5 10.3-29.8-.8-12.1-6.2-21.1-13-27.3-6.5-6-16.8-11.3-30-10.4-2.9.3-6.1.8-8.7 1.6z"/><path fill-rule="evenodd" clip-rule="evenodd" fill="#FFF" d="M66.2 308.4v-3.6c.4-2.6 1-4.5 2.2-6.4 1.1-1.8 2.5-2.9 4.1-4.3 9.1-7.8 18.4-15.7 27.4-23.5 6-5.2 11.9-10.5 17.8-16.1 5.3-5 12.9-11.3 12-21.8-.4-5.3-2.4-8.8-5.3-11.6-2.8-2.7-6.6-5-11.7-5.2-10.9-.4-16.9 6.1-18.6 15.3-.5 2.7-.4 5.3-.9 7.6-1.4 6.6-5.3 12-13.7 11.7-10.5-.5-13.5-9.4-11.6-21.3 1.5-9.5 5.3-17.4 10.3-23.7 7.5-9.5 18.5-15.8 35.8-15.1 15.9.7 26 8.1 33.2 17.7 4.8 6.3 8.7 14.2 9 24.9.2 5.7-.5 10.7-2 15-2.8 8.1-8.1 15-13.3 20.6-2.7 2.9-5.7 5.4-8.8 8.2-5.6 5.1-11 10-16.8 15.1-.4.4-1.2.7-.7.9.5.2 1.9.1 2.9.1 11.3.3 21.9.1 33.1.1 3.9 0 8.7-.4 11.4.8 2.6 1.1 4.8 3.3 6 6.1 1.2 2.8 1.7 6.9.7 10.4-1.3 4.6-5.2 7.5-9.9 8.4-1.7.3-3.7.1-6 .1-23.8 0-48.9-.1-72.7-.1-2.1 0-3.9 0-5.5-.5-4.6-1.4-7.5-4.7-8.4-9.8zM308.3 248.7v54.8c0 5 .3 9.4-1.2 12.5-1.4 3.1-3.6 5.3-7.4 6.3-4.1 1.1-8.8.4-11.4-1.1-2.7-1.6-5.2-4.7-5.6-8.7-.3-3.1 0-6.3 0-9.5v-28.3c-12.2-.2-22.9.3-35.6-.1-5.8-.2-9.4-2.3-11.2-6.6-2-4.6-1.6-10.6 1-14.2 1.9-2.6 4.4-4.1 7.8-5.3.1 0 .2-.1.3-.1 2.4-.4 5.3 0 8 0l55.3.3z"/></svg>