<svg xmlns="http://www.w3.org/2000/svg" width="512" height="512" viewBox="0 0 512 512"><path fill="#311260" d="M512 472c0 22.1-17.9 40-40 40H40c-22.1 0-40-17.9-40-40V40C0 17.9 17.9 0 40 0h432c22.1 0 40 17.9 40 40v432z"/><path fill-rule="evenodd" clip-rule="evenodd" fill="#FFF" d="M422.9 172.2h38.8l-47.1 99.3h-41.8zM167.9 206.4h27.4l-25.8 65.1h-29.8zM288.9 211.4h43.7s1.3-3.6 3.2-7.1c1.9-3.5 3.3-5.1 6.4-7 3-1.9 9.1-2.6 11.1-1.2 2.3 1.7 3.1 4.8 2.4 7.4-.7 2.5.3 3.5-14.8 15-15.1 11.5-42.8 26.4-52.5 31.8-9.7 5.4-34.7 21.2-34.7 21.2h108.7l11.3-21.8-34.8.1s23-11.5 30.7-16.5c7.7-5 8.7-5.7 13.8-9.6 5.1-3.9 8.3-7.3 11.8-11.9 3.5-4.6 4.4-6 5.4-9s1.6-8.3 1.2-11.5c-.4-3.2-1.5-6.5-5.5-11.5-4.1-4.9-9.7-7.6-14.8-9-6.8-1.9-22.5-1.9-29.9-1-7.7.9-10 .8-16.6 2.7-7.9 2.3-12 3.5-20.4 8-6.3 3.4-12.7 8.6-17.3 13.6-5.3 6-8.4 17.3-8.4 17.3zM50.3 278.4l359.7-.7-292.8 65-20-18.8L339 289 93.4 320.1 74 301.4l256-17.5-260.1 13.5zM109.3 206.4l-52.9 65.1h29.4l5.5-7.6h18.1v7.6h28.7v-65.1h-28.8zm3 41.1h-11.5l12-17.1-.5 17.1zM266 222c0-1.9-2.1-7.4-4.2-9.1-2.9-2.5-5.8-4.6-14.1-5.8-8.3-1.2-44.4-.7-44.4-.7l-27.6 65.1h28.4l9.1-19.6 6.1 19.6h32.8l-10.6-25.1s12-2.8 19.2-10.7c0 0 2.5-2.9 4.1-6.7 1.7-3.8 1.2-5.2 1.2-7zm-30.9 9.8c-.3.6-.8 1.6-1.8 2.7s-3.5 1.9-5.6 1.9h-8.1l5.1-12.4s8.6-.1 9.5.3c.9.4 1.9 1.9 1.9 3.8-.1 1.5-.6 2.8-1 3.7z"/></svg>